<svg width="180" height="92" viewBox="0 0 180 92" fill="none" xmlns="http://www.w3.org/2000/svg">
    <path d="M37.93 32.931c0 .255.037.4.11.582l.29.8c.146.328-.036.583-.4.62l-4.438.654c-.4.073-.546-.146-.437-.51l.255-.872a1.7 1.7 0 0 0 .11-.619v-1.091c0-.255-.074-.4-.256-.583h-.036c-.182-.145-.364-.181-.618-.145l-2.729.4c-.255.036-.436.146-.618.328-.219.218-.291.4-.291.654v4.948c0 .255.072.4.254.582l.037.037c.181.145.363.182.618.145l5.53-.8c.255-.036.437 0 .618.145l1.747 1.492c.182.146.255.328.255.582v10.514c0 .255-.073.437-.255.655l-1.747 2.001c-.181.219-.363.291-.618.328l-8.259 1.2c-.254.037-.436 0-.618-.145l-1.856-1.456c-.181-.145-.254-.327-.254-.582V48.94c0-.255-.037-.4-.073-.582l-.255-.8c-.109-.328.037-.583.4-.619l4.44-.655c.363-.036.545.146.436.51l-.291.909c-.073.218-.11.364-.11.619v1.09c0 .256.073.401.255.583h.037c.181.145.363.182.618.146l2.729-.4c.254-.037.436-.146.618-.328.218-.218.291-.4.291-.655V43.81c0-.255-.073-.4-.255-.582l-.036-.036c-.182-.146-.364-.182-.618-.146l-5.458.8c-.254.037-.436 0-.618-.145l-1.856-1.492c-.181-.145-.254-.327-.254-.582v-10.55c0-.255.073-.437.254-.655l1.856-1.965c.182-.218.364-.29.618-.327l8.259-1.2c.255-.037.437 0 .618.145l1.747 1.455c.182.145.255.327.255.582v3.82zM56.23 48.611c.036.219.11.328.218.546l.473.837c.182.327 0 .618-.364.655l-4.402.655c-.364.036-.546-.146-.4-.473l.073-.219a1.36 1.36 0 0 0 .036-.654l-.837-3.348c-.036-.218-.145-.363-.327-.509l-.036-.036c-.182-.146-.364-.182-.619-.146l-3.71.546c-.255.036-.437.145-.62.327l-.036.037c-.182.218-.29.4-.327.618l-.837 3.602c-.036.218-.036.4.036.618l.073.182c.146.328-.036.583-.4.619l-4.402.655c-.364.036-.546-.182-.364-.546l.473-.982c.11-.219.182-.364.218-.582l5.385-23.757c.036-.219.036-.4-.037-.619l-.218-.655c-.109-.327.036-.582.437-.618l4.911-.728c.4-.073.546.146.437.51l-.218.69a1.357 1.357 0 0 0-.037.655l5.42 22.12zm-9.677-7.494c-.037.29 0 .473.145.546.145.109.327.181.582.145l1.928-.291a.989.989 0 0 0 .582-.291c.146-.146.182-.328.146-.582l-1.383-6.585c-.072-.473-.509-.437-.582.073l-1.418 6.985zM69.8 21.762c.328-.036.51.073.546.4l.655 3.82c.073.365-.145.583-.51.547l-1.018-.11c-.218 0-.364-.036-.618 0l-2.693.4c-.254.037-.436.146-.618.328-.182.218-.255.4-.255.655v19.537c0 .254.037.4.11.582l.29.8c.11.328-.072.582-.436.619l-4.439.655c-.364.036-.545-.146-.436-.51l.29-.91c.074-.218.11-.363.11-.618V28.42c0-.254-.073-.4-.255-.582h-.036c-.182-.145-.364-.182-.619-.145l-2.765.4c-.254.036-.4.11-.618.145l-.946.4c-.364.146-.582 0-.51-.4l.655-4.038c.037-.327.219-.51.546-.546l13.57-1.892zM86.902 19.289c.363-.037.545.145.436.51l-.29.945c-.074.218-.11.364-.11.619v22.301c0 .255-.073.437-.255.655l-1.782 2.001c-.182.218-.364.291-.619.328l-8.295 1.2c-.255.037-.436 0-.618-.145l-1.71-1.492c-.182-.145-.255-.327-.255-.582V23.327c0-.255-.036-.4-.11-.582l-.29-.837c-.11-.327.036-.582.436-.618l4.366-.655c.364-.037.546.145.437.51l-.291.945a1.7 1.7 0 0 0-.11.619v19.537c0 .254.073.4.255.582h.037c.181.145.363.181.618.145l2.765-.4c.255-.037.437-.146.619-.328.218-.218.29-.4.29-.654V22.054c0-.255-.036-.4-.109-.582l-.29-.837c-.11-.328.036-.582.436-.619l4.439-.727zM95.56 44.392c.108.327-.074.582-.437.618l-4.366.655c-.364.037-.546-.145-.437-.51l.291-.909c.073-.218.11-.364.11-.618V20.78c0-.255-.037-.4-.11-.582l-.29-.837c-.11-.327.036-.582.436-.618l10.805-1.601c.255-.036.437 0 .619.146l1.782 1.455c.182.145.255.327.255.582v11.57c0 .254-.073.436-.255.654l-1.746 2.001c-.218.255-.255.437-.218.691l1.892 7.75.509 1.164c.109.327-.037.582-.4.618l-4.403.655c-.363.037-.545-.145-.436-.473l.182-.837c.036-.254.036-.4 0-.654L97.56 35.26a.763.763 0 0 0-.255-.51.657.657 0 0 0-.545-.145l-.728.11c-.254.036-.436.145-.618.327l-.037.036c-.182.218-.254.4-.254.655v7.313c0 .254.036.4.109.582l.327.764zm-.401-14.917c0 .255.073.4.291.546.182.146.364.182.618.146l2.766-.4c.254-.037.436-.146.618-.328.218-.218.291-.4.291-.655v-6.04c0-.254-.073-.4-.255-.581h-.036c-.182-.146-.364-.182-.618-.146l-2.766.4c-.254.037-.436.146-.618.328-.218.218-.291.4-.291.655v6.075zM107.747 18.233c0-.255-.036-.4-.073-.582l-.254-.8c-.109-.328.036-.582.4-.619l10.842-1.6c.254-.037.436 0 .618.145l1.783 1.455c.182.146.255.328.255.582v21.793c0 .254-.073.436-.255.655l-1.783 2c-.182.219-.364.292-.618.328l-10.842 1.6c-.364.037-.509-.145-.437-.509l.255-.91c.073-.217.109-.363.109-.618v-22.92zm4.73 2.001c-.182.218-.255.4-.255.655v16.19c0 .254.073.4.255.582l.036.036c.182.146.364.182.619.146l2.728-.4c.255-.037.437-.146.619-.328l.036-.036c.182-.219.255-.4.255-.655v-16.19c0-.255-.073-.4-.255-.582l-.036-.037c-.182-.145-.364-.181-.619-.145l-2.728.4c-.255.037-.437.146-.619.328l-.036.036zM140.199 36.315c.036.218.109.327.218.545l.473.837c.182.328 0 .618-.364.655l-4.402.655c-.364.036-.546-.146-.4-.473l.073-.218c.072-.255.072-.437.036-.655l-.837-3.347c-.036-.219-.145-.364-.327-.51l-.037-.036c-.182-.146-.363-.182-.618-.146l-3.711.546c-.255.036-.437.146-.619.328l-.036.036c-.182.218-.291.4-.327.618l-.837 3.602c-.037.218-.037.4.036.619l.073.181c.146.328-.036.583-.4.619l-4.402.655c-.364.036-.546-.182-.364-.546l.473-.982c.109-.218.182-.364.218-.582l5.385-23.757c.036-.219.036-.4-.037-.619l-.218-.655c-.109-.327.036-.582.436-.618l4.912-.728c.4-.073.546.146.437.51l-.219.69a1.347 1.347 0 0 0-.036.656l5.421 22.12zm-9.678-7.531c-.036.29 0 .473.146.545.145.11.327.182.582.146l1.928-.291a.986.986 0 0 0 .582-.291c.146-.146.182-.328.146-.582l-1.383-6.585c-.073-.473-.509-.437-.582.072l-1.419 6.986zM149.513 27.365a1.694 1.694 0 0 0-.109.618v7.058c0 .255.036.4.073.582l.254.8c.11.328-.036.583-.4.62l-4.329.618c-.364.036-.546-.146-.437-.51l.291-.91c.073-.217.109-.363.109-.618v-6.985c0-.255-.036-.4-.109-.582l-5.275-14.225a1.052 1.052 0 0 0-.291-.473l-.728-1.019c-.218-.327-.072-.582.328-.655l5.202-.764c.437-.072.582.146.401.473l-.146.219a.906.906 0 0 0-.073.69l2.583 8.114c.146.436.51.4.655-.11l2.583-8.876a.8.8 0 0 0-.072-.655l-.11-.11c-.218-.327-.036-.581.364-.654l5.203-.764c.4-.073.545.182.327.546l-.727 1.237c-.146.181-.219.363-.292.582l-5.275 15.753zM62.853 12.922c-.11 0-.182 0-.291-.036-.11-.036-.182-.073-.219-.145a.759.759 0 0 1-.145-.219.685.685 0 0 1-.073-.29c0-.219.073-.4.218-.583a.82.82 0 0 1 .51-.29c.218-.037.4.036.545.145a.66.66 0 0 1 .219.509c0 .218-.073.4-.219.582a.863.863 0 0 1-.545.327zM67.546 11.066l1.928-.29v.982l-1.928.29v2.038l2.474-.364v.982l-3.493.51V8.3l3.493-.509v.982l-2.474.364v1.928zM76.313 13.067a1.93 1.93 0 0 1-.764.764 5.191 5.191 0 0 1-.982.328c-.218.036-.437.036-.655.036a3.073 3.073 0 0 1-.618-.146 1.528 1.528 0 0 1-.51-.327 1.234 1.234 0 0 1-.327-.51l.837-.836.072.11c.11.181.291.363.51.472.218.146.436.182.69.146a1 1 0 0 0 .692-.364c.182-.219.291-.437.291-.728a.734.734 0 0 0-.109-.4.85.85 0 0 0-.255-.255 1.137 1.137 0 0 0-.363-.182l-.437-.109a18.539 18.539 0 0 0-.728-.218c-.254-.11-.509-.218-.69-.4-.401-.328-.62-.728-.62-1.2 0-.328.073-.583.219-.838a3.14 3.14 0 0 1 .51-.654c.218-.182.472-.328.727-.473.255-.11.546-.219.8-.255.437-.073.8 0 1.128.182.328.182.546.473.764.837l-.8.654a2.114 2.114 0 0 0-.546-.473c-.182-.109-.437-.145-.691-.109a.587.587 0 0 0-.328.11c-.109.036-.218.109-.327.181a.49.49 0 0 0-.218.255.587.587 0 0 0-.11.327c0 .146.037.292.146.4.11.11.218.183.364.255.145.073.29.11.473.182.182.037.327.11.436.146.182.072.4.145.619.218.218.073.4.218.582.328.182.145.327.29.436.472.11.182.182.4.182.655 0 .146-.036.364-.072.655-.037.218-.146.51-.328.764zM83.01 6.883l-1.638.254v5.93l-1.055.146v-5.93l-1.637.255v-.983l4.365-.655v.983h-.036zM93.994 11.176l-4.038.582V10.63c0-.546.218-1.055.618-1.601.182-.255.437-.473.691-.691.255-.218.51-.4.728-.582l.327-.219c.11-.072.219-.182.328-.29.109-.11.218-.219.29-.328.074-.11.146-.255.183-.364a.877.877 0 0 0-.146-.655.89.89 0 0 0-.4-.327c-.182-.073-.327-.073-.546-.073-.327.036-.582.218-.8.51a1.592 1.592 0 0 0-.291.909l-1.055-.473c0-.327.073-.582.218-.8.146-.219.291-.4.437-.546.4-.364.91-.619 1.455-.691.618-.073 1.164 0 1.564.327.219.182.364.4.473.655.11.255.182.51.182.8 0 .219 0 .473-.073.692-.072.218-.181.436-.29.654-.11.219-.255.4-.437.583-.182.181-.328.327-.51.472-.218.146-.4.328-.618.473-.218.146-.4.291-.582.473-.146.146-.291.291-.4.437-.11.146-.146.327-.146.582l2.801-.4v1.019h.037zM101.891 7.029c0 .436-.037.836-.146 1.236-.109.4-.254.728-.473 1.056a2.797 2.797 0 0 1-.8.8 2.986 2.986 0 0 1-1.164.436c-.437.073-.8.037-1.128-.072a1.756 1.756 0 0 1-.8-.546 2.406 2.406 0 0 1-.474-.91 4.156 4.156 0 0 1-.181-1.2v-.837c0-.255 0-.473.036-.727.036-.255.073-.473.145-.692.073-.29.182-.545.328-.764.145-.254.327-.436.546-.618.218-.182.436-.364.69-.473.256-.11.547-.218.801-.255.219-.036.4-.036.582-.036.182 0 .364.036.51.109.291.109.582.255.8.51.218.254.4.545.509.909.11.364.182.764.182 1.237v.837h.037zm-1.71-2.402a1.07 1.07 0 0 0-.837-.145c-.582.073-.982.473-1.273 1.128-.073.145-.11.363-.182.618-.073.255-.073.582-.073.982 0 .182 0 .4.036.692.037.29.11.545.219.8.254.582.691.837 1.273.764.328-.036.619-.182.8-.4.219-.182.364-.437.473-.691.073-.219.146-.437.182-.692.037-.254.073-.582.073-.91 0-.217 0-.472-.036-.763-.037-.291-.073-.546-.182-.764a1.146 1.146 0 0 0-.182-.364c-.109-.11-.218-.182-.291-.255zM106.256 9.393l-1.019.145V3.754l-.837 1.018v-.945l.728-1.165 1.128-.182v6.913zM114.113 5.21c0 .436-.036.836-.145 1.236-.109.4-.255.728-.473 1.055a2.796 2.796 0 0 1-.8.8 2.986 2.986 0 0 1-1.165.437c-.436.073-.8.037-1.127-.073a1.753 1.753 0 0 1-.801-.545 2.407 2.407 0 0 1-.473-.91 4.16 4.16 0 0 1-.182-1.2v-.837c0-.255 0-.473.037-.728.036-.254.072-.473.145-.691a2.42 2.42 0 0 1 .328-.764 2.22 2.22 0 0 1 .545-.619c.219-.181.437-.363.692-.473.254-.109.545-.218.8-.254.218-.037.4-.037.582-.037.182 0 .364.037.509.11.291.109.583.254.801.509.218.255.4.546.509.91.109.363.182.763.182 1.236v.837h.036zm-1.709-2.366a1.07 1.07 0 0 0-.837-.145c-.582.073-.983.473-1.274 1.128-.072.145-.109.364-.182.618-.072.255-.072.582-.072.982 0 .182 0 .4.036.692.036.29.109.545.218.8.255.582.692.837 1.274.764.327-.036.618-.182.8-.4.218-.182.364-.437.473-.691.073-.219.146-.437.182-.692a6.64 6.64 0 0 0 .073-.91c0-.217 0-.472-.037-.763-.036-.291-.072-.546-.182-.764-.036-.146-.109-.255-.181-.364-.11-.11-.219-.182-.291-.255zM117.025 4.955c-.11 0-.182 0-.292-.037-.109-.036-.181-.072-.218-.145a.746.746 0 0 1-.145-.218.676.676 0 0 1-.073-.292c0-.218.073-.4.218-.582a.822.822 0 0 1 .51-.29c.218-.037.4.036.545.145a.66.66 0 0 1 .219.51.89.89 0 0 1-.219.581c-.145.219-.327.291-.545.328zM3.878 65.493c0-.255-.036-.4-.073-.582l-.254-.8c-.11-.328.036-.583.4-.62l10.841-1.6c.255-.036.437 0 .619.146l1.783 1.455c.182.145.254.327.254.582v21.793c0 .254-.072.436-.254.654l-1.783 2.001c-.182.219-.364.291-.618.328L3.95 90.378c-.364.036-.51-.146-.437-.51l.255-.91a1.7 1.7 0 0 0 .11-.618V65.493zm4.766 2c-.182.22-.255.401-.255.656v16.153c0 .255.073.4.255.582l.036.037c.182.145.364.181.619.145l2.729-.4c.254-.037.436-.146.618-.328l.036-.036c.182-.218.255-.4.255-.655v-16.19c0-.254-.073-.4-.255-.582l-.036-.036c-.182-.146-.364-.182-.619-.146l-2.728.4c-.255.037-.437.146-.619.328l-.036.073zM31.602 59.38c.255-.036.436 0 .618.146l1.747 1.455c.182.146.254.328.254.582v21.793c0 .254-.072.436-.254.655l-1.747 2c-.181.219-.363.292-.618.328l-8.259 1.2c-.254.037-.436 0-.618-.145l-1.783-1.492c-.182-.145-.255-.327-.255-.582V63.528c0-.255.073-.437.255-.655l1.783-1.965c.182-.218.364-.29.618-.327l8.259-1.2zm-1.928 5.676c0-.255-.073-.4-.255-.582h-.036c-.182-.146-.364-.182-.619-.146l-2.692.4c-.255.037-.437.146-.619.328-.218.218-.29.4-.29.655V81.9c0 .254.072.4.254.582h.036c.182.145.364.181.619.145l2.692-.4c.255-.036.437-.146.619-.328.218-.218.29-.4.29-.654v-16.19zM63.435 57.016l-.182.582-4.584 22.775c-.037.254-.037.4 0 .654l.218.728c.073.328-.073.582-.437.619l-4.984.727c-.364.037-.51-.145-.437-.51l.219-.763c.036-.255.073-.4 0-.655l-2.729-13.316c-.073-.436-.51-.4-.582.073l-2.62 14.116c-.072.255-.036.4 0 .655l.219.728c.073.327-.073.582-.437.618l-5.02.728c-.364.036-.51-.146-.437-.51l.218-.764c.037-.254.037-.4 0-.654l-4.657-21.393-.181-.546-.692-1.673c-.109-.327.037-.582.4-.618l4.366-.655c.4-.073.546.145.473.436l-.073.218c-.072.255-.109.437-.036.655l2.874 14.116c.11.437.51.4.582-.072l2.875-14.48c.072-.255.036-.4 0-.655l-.182-.582c-.073-.328.072-.582.436-.619l4.511-.654c.364-.037.51.145.437.509l-.182.618c-.036.255-.036.4 0 .655l2.91 13.643c.074.473.474.437.583-.073l2.874-14.952c.036-.219.036-.4-.036-.619l-.073-.145c-.11-.328.036-.582.4-.619l4.402-.655c.4-.072.546.182.4.51l-.836 1.819zM71.04 78.517c0 .255.036.4.109.582l.291.8c.11.328-.073.582-.436.619l-4.366.655c-.364.036-.546-.146-.437-.51l.291-.91c.073-.217.11-.363.11-.618V56.288c0-.255-.037-.4-.11-.582l-.29-.837c-.11-.328.035-.582.436-.618l3.965-.583c.291-.036.473.037.582.291l5.821 13.716c.182.437.582.291.582-.182V54.687c0-.255-.036-.4-.109-.582l-.29-.837c-.11-.327.036-.582.436-.618l4.438-.655c.364-.037.546.145.437.51l-.291.945c-.073.218-.11.364-.11.618v22.848c0 .255.037.4.11.582l.291.8c.11.328-.073.583-.437.62l-4.038.581c-.291.037-.473-.036-.582-.29l-5.821-13.717c-.182-.4-.582-.254-.582.219v12.806zM107.749 54.723c0 .255.036.4.109.582l.291.8c.146.328-.036.583-.4.62l-4.439.654c-.4.073-.545-.146-.436-.51l.254-.873c.073-.218.11-.363.11-.618v-1.092c0-.254-.073-.4-.255-.582h-.037c-.181-.145-.363-.181-.618-.145l-2.729.4c-.254.036-.436.146-.618.327-.218.219-.291.4-.291.655v4.948c0 .255.073.4.255.582l.036.037c.182.145.364.182.618.145l5.53-.8c.255-.037.437 0 .619.145l1.746 1.492c.182.146.255.328.255.582v10.514c0 .255-.073.437-.255.655l-1.746 2.001c-.182.218-.364.291-.619.328l-8.258 1.2c-.255.037-.437 0-.619-.145l-1.855-1.456c-.182-.145-.255-.327-.255-.582v-3.856c0-.255-.036-.4-.073-.582l-.254-.8c-.11-.328.036-.583.4-.619l4.438-.655c.364-.036.546.146.437.51l-.291.909c-.073.218-.11.364-.11.618v1.092c0 .255.074.4.256.582h.036c.182.145.364.182.618.145l2.729-.4c.255-.036.437-.145.618-.327.219-.218.292-.4.292-.655v-4.948c0-.254-.073-.4-.255-.582l-.037-.036c-.181-.146-.363-.182-.618-.146l-5.457.8c-.255.037-.437 0-.619-.145L94.397 64c-.182-.145-.255-.327-.255-.582v-10.55c0-.255.073-.437.255-.655l1.855-1.965c.182-.218.364-.29.619-.327l8.258-1.2c.255-.037.437 0 .619.145l1.746 1.455c.182.146.255.327.255.582v3.82zM122.155 46.137c.254-.036.436 0 .618.146l1.746 1.455c.182.145.255.327.255.582v21.792c0 .255-.073.437-.255.655l-1.746 2.001c-.182.219-.364.291-.618.328l-8.259 1.2c-.255.037-.436 0-.618-.145l-1.783-1.492c-.182-.145-.255-.327-.255-.582V50.285c0-.255.073-.437.255-.655l1.783-1.965c.182-.218.363-.29.618-.327l8.259-1.2zm-1.965 5.676c0-.255-.073-.4-.255-.582h-.036c-.182-.146-.364-.182-.618-.146l-2.693.4c-.254.037-.436.146-.618.328-.218.218-.291.4-.291.654v16.19c0 .255.073.4.254.582h.037c.182.146.364.182.618.146l2.693-.4c.254-.037.436-.146.618-.328.218-.218.291-.4.291-.655v-16.19zM141.765 43.263c.364-.036.546.146.436.51l-.291.946a1.716 1.716 0 0 0-.109.618V67.64c0 .255-.073.437-.254.655l-1.783 2c-.182.22-.364.292-.619.328l-8.295 1.2c-.254.037-.436 0-.618-.145l-1.71-1.491c-.182-.146-.255-.328-.255-.582V47.302c0-.255-.036-.4-.109-.582l-.291-.837c-.109-.328.036-.582.437-.619l4.365-.655c.364-.036.546.146.437.51l-.291.946a1.695 1.695 0 0 0-.109.618V66.22c0 .255.073.4.255.582h.036c.182.146.364.182.618.146l2.765-.4c.255-.037.437-.146.619-.328.218-.218.291-.4.291-.655V46.028c0-.254-.036-.4-.109-.582l-.291-.837c-.109-.327.036-.582.436-.618l4.439-.728zM158.863 40.753c.327-.037.509.072.546.4l.655 3.82c.072.364-.146.582-.51.546l-1.018-.11c-.219 0-.364-.036-.619 0l-2.692.4c-.255.037-.437.146-.619.328-.182.218-.254.4-.254.655V66.33c0 .255.036.4.109.582l.291.8c.109.328-.073.583-.437.619l-4.438.655c-.364.036-.546-.146-.437-.51l.291-.91c.073-.217.109-.363.109-.618V47.411c0-.255-.072-.4-.254-.583h-.037c-.182-.145-.364-.181-.618-.145l-2.765.4c-.255.037-.4.11-.619.146l-.946.4c-.363.145-.582 0-.509-.4l.655-4.039c.036-.327.218-.509.546-.545l13.57-1.892zM162.537 42.245c0-.255-.037-.4-.109-.582l-.291-.837c-.11-.328.036-.582.436-.619l4.366-.655c.364-.036.546.146.437.51l-.291.946c-.073.218-.11.363-.11.618v8.15c0 .254.073.4.255.582l.036.036c.182.145.364.182.619.145l2.729-.4c.254-.036.436-.145.618-.327l.036-.036c.182-.219.255-.4.255-.655v-8.15c0-.254-.036-.4-.109-.582l-.255-.837c-.109-.327.037-.582.4-.618l4.475-.655c.364-.036.546.145.437.51l-.291.945a1.695 1.695 0 0 0-.109.619V63.2c0 .255.036.4.109.582l.291.8c.109.328-.073.583-.437.62l-4.438.654c-.4.073-.546-.145-.437-.51l.255-.872c.073-.219.109-.364.109-.619v-8.44c0-.255-.073-.4-.255-.582l-.036-.037c-.182-.145-.364-.182-.618-.145l-2.729.4c-.255.036-.437.145-.619.327l-.036.037c-.182.218-.255.4-.255.654v8.441c0 .255.037.4.11.582l.291.8c.109.328-.073.583-.437.619l-4.366.655c-.364.036-.546-.146-.436-.51l.291-.909c.072-.218.109-.364.109-.618V42.245z" fill="#000"/>
</svg>
